<svg xmlns="http://www.w3.org/2000/svg" width="210" height="36" viewBox="0 0 210 36">
  <rect width="210" height="36" rx="5" fill="#e8e8e8"/>
  <rect x="1" y="1" width="208" height="34" rx="4" fill="#ffffff"/>
  <text x="64" y="23" font-family="Helvetica,Arial,sans-serif" font-size="14" font-weight="400" fill="#333333" text-anchor="end">Deploy to</text>
  <g transform="translate(68, 8) scale(0.038)" fill="#00A1E0">
    <path d="M216.1 97.3c13.7-14.8 33.1-24.1 54.7-24.1 27.5 0 51.3 14.9 64.1 37.1 11.1-4.9 23.3-7.6 36.2-7.6 48.8 0 88.4 39.6 88.4 88.4s-39.6 88.4-88.4 88.4c-7.6 0-15-1-22.1-2.8-11.6 20.2-33.3 33.8-58.2 33.8-15.3 0-29.4-5.1-40.7-13.7-12.4 21.7-35.8 36.3-62.6 36.3-30.7 0-56.8-19.2-67.2-46.2-5.1 1.1-10.4 1.7-15.8 1.7-40.3 0-73-32.7-73-73 0-37.3 28-68.1 64.2-72.5 3-36 33.2-64.4 70-64.4 20.3 0 38.7 8.6 51.6 22.4z"/>
  </g>
  <text x="90" y="23" font-family="Helvetica,Arial,sans-serif" font-size="14" font-weight="700" fill="#00A1E0">salesforce</text>
</svg>
