<svg xmlns="http://www.w3.org/2000/svg" width="200" height="36" viewBox="0 0 200 36">
  <rect width="200" height="36" rx="5" fill="#1a8ceb"/>
  <g transform="translate(14, 8)" fill="#ffffff">
    <path d="M8.4 3.6c.9-1 2.2-1.6 3.6-1.6 1.8 0 3.4 1 4.2 2.4.7-.3 1.5-.5 2.3-.5 3 0 5.5 2.5 5.5 5.5s-2.5 5.5-5.5 5.5c-.5 0-1-.1-1.4-.2-.7 1.3-2.1 2.2-3.7 2.2-1 0-1.9-.3-2.6-.9-.8 1.4-2.3 2.3-4 2.3-2 0-3.7-1.3-4.3-3C2 15.2 1.5 15 1 15c0 0-.1 0-.1 0C.4 14.8 0 14.3 0 13.6 0 11.5 1.8 9.8 4 9.8c.3 0 .5 0 .8.1C5 7.4 6.5 5.2 8.4 3.6z"/>
  </g>
  <text x="112" y="23.5" font-family="Helvetica,Arial,sans-serif" font-size="14" fill="#ffffff" text-anchor="middle">
    <tspan font-weight="400">Deploy to </tspan><tspan font-weight="700">Salesforce</tspan>
  </text>
</svg>
